# xmcd
#
# Track frame offsets:
# 150
# 12399
# 23384
# 33722
# 44114
# 55925
# 67968
# 78537
# 92399
# 103160
# 115708
# 127933
#
# Disc length: 1852 seconds
#
#
# Revision: 0
# Processed by: cddbd v1.5.2PL0 Copyright (c) Steve Scherf et al.
# Submitted via: FreeRIP 2.951 
#
DISCID=94073a0c
DTITLE=Granstein_Echo_I_hab'a_Tiroler_Herz - I_hab'a_Tiroler_Herz
DYEAR=1900
DGENRE=
TTITLE0=01-I hab' a Tiroler Herz
TTITLE1=02-Ja bin i nimmer sexy?
TTITLE2=03-Genau ins Herz
TTITLE3=04-Boarisch Zeit is jeden Tag
TTITLE4=05-Pack ma zam
TTITLE5=06-Granstein Walzer
TTITLE6=07-Oetztal Boarischer
TTITLE7=08-Wir sind erste Wahl
TTITLE8=09-Gipfelkreuz Länder
TTITLE9=10-Freunde der Berge
TTITLE10=11-I hob di für mei Leb'n gern
TTITLE11=12-Heut is a Tag zum Lustig sein
EXTD=
EXTT0=
EXTT1=
EXTT2=
EXTT3=
EXTT4=
EXTT5=
EXTT6=
EXTT7=
EXTT8=
EXTT9=
EXTT10=
EXTT11=
PLAYORDER=
